<?xml version="1.0" encoding="UTF-8" standalone="no"?>
<!DOCTYPE svg PUBLIC "-//W3C//DTD SVG 1.1//EN"
 "http://www.w3.org/Graphics/SVG/1.1/DTD/svg11.dtd">
<!-- Generated by graphviz version 14.1.5 (20260411.2331)
 -->
<!-- Title: SI_Pipeline Pages: 1 -->
<svg width="901pt" height="385pt"
 viewBox="0.00 0.00 901.00 385.00" xmlns="http://www.w3.org/2000/svg" xmlns:xlink="http://www.w3.org/1999/xlink">
<g id="graph0" class="graph" transform="scale(1 1) rotate(0) translate(14.4 370.15)">
<title>SI_Pipeline</title>
<!-- input_bucket -->
<g id="node1" class="node">
<title>input_bucket</title>
<path fill="#e3f2fd" stroke="#1976d2" stroke-width="2" d="M146.4,-355.75C146.4,-355.75 12,-355.75 12,-355.75 6,-355.75 0,-349.75 0,-343.75 0,-343.75 0,-223.75 0,-223.75 0,-217.75 6,-211.75 12,-211.75 12,-211.75 146.4,-211.75 146.4,-211.75 152.4,-211.75 158.4,-217.75 158.4,-223.75 158.4,-223.75 158.4,-343.75 158.4,-343.75 158.4,-349.75 152.4,-355.75 146.4,-355.75"/>
<image xlink:href="../../../../inputs/icons/Storage_Bucket_Reverse.svg" width="144px" height="144px" preserveAspectRatio="xMinYMin meet" x="7.2" y="-355.75"/>
<text xml:space="preserve" text-anchor="middle" x="79.2" y="-224.75" font-family="Helvetica,sans-Serif" font-size="10.00">Input Bucket</text>
<text xml:space="preserve" text-anchor="middle" x="79.2" y="-213.5" font-family="Helvetica,sans-Serif" font-size="10.00">S3 (customer data)</text>
</g>
<!-- parsers -->
<g id="node2" class="node">
<title>parsers</title>
<path fill="#f3e5f5" stroke="#6a1b9a" stroke-width="2" d="M376.4,-355.75C376.4,-355.75 242,-355.75 242,-355.75 236,-355.75 230,-349.75 230,-343.75 230,-343.75 230,-223.75 230,-223.75 230,-217.75 236,-211.75 242,-211.75 242,-211.75 376.4,-211.75 376.4,-211.75 382.4,-211.75 388.4,-217.75 388.4,-223.75 388.4,-223.75 388.4,-343.75 388.4,-343.75 388.4,-349.75 382.4,-355.75 376.4,-355.75"/>
<image xlink:href="../../../../inputs/icons/agent.png" width="144px" height="144px" preserveAspectRatio="xMinYMin meet" x="237.2" y="-355.75"/>
<text xml:space="preserve" text-anchor="middle" x="309.2" y="-224.75" font-family="Helvetica,sans-Serif" font-size="10.00">Parsers</text>
<text xml:space="preserve" text-anchor="middle" x="309.2" y="-213.5" font-family="Helvetica,sans-Serif" font-size="10.00">Tree&#45;sitter / ANTLR / PDF</text>
</g>
<!-- input_bucket&#45;&gt;parsers -->
<g id="edge5" class="edge">
<title>input_bucket&#45;&gt;parsers</title>
<path fill="none" stroke="#333333" stroke-width="1.5" d="M159.32,-284C159.32,-284 220.1,-284 220.1,-284"/>
<polygon fill="#333333" stroke="#333333" stroke-width="1.5" points="220.1,-286.45 227.1,-284 220.1,-281.55 220.1,-286.45"/>
</g>
<!-- sig_graph -->
<g id="node5" class="node">
<title>sig_graph</title>
<path fill="#ede7f6" stroke="#4a148c" stroke-width="3" d="M146.4,-144C146.4,-144 12,-144 12,-144 6,-144 0,-138 0,-132 0,-132 0,-12 0,-12 0,-6 6,0 12,0 12,0 146.4,0 146.4,0 152.4,0 158.4,-6 158.4,-12 158.4,-12 158.4,-132 158.4,-132 158.4,-138 152.4,-144 146.4,-144"/>
<image xlink:href="../../../../inputs/icons/Database_Graph_Reverse.svg" width="144px" height="144px" preserveAspectRatio="xMinYMin meet" x="7.2" y="-144"/>
<text xml:space="preserve" text-anchor="middle" x="79.2" y="-13" font-family="Helvetica,sans-Serif" font-size="10.00">SI/G</text>
<text xml:space="preserve" text-anchor="middle" x="79.2" y="-1.75" font-family="Helvetica,sans-Serif" font-size="10.00">Knowledge Graph</text>
</g>
<!-- input_bucket&#45;&gt;sig_graph -->
<!-- dsl -->
<g id="node3" class="node">
<title>dsl</title>
<path fill="#fffde7" stroke="#f57f17" stroke-width="2" stroke-dasharray="5,2" d="M606.4,-355.75C606.4,-355.75 472,-355.75 472,-355.75 466,-355.75 460,-349.75 460,-343.75 460,-343.75 460,-223.75 460,-223.75 460,-217.75 466,-211.75 472,-211.75 472,-211.75 606.4,-211.75 606.4,-211.75 612.4,-211.75 618.4,-217.75 618.4,-223.75 618.4,-223.75 618.4,-343.75 618.4,-343.75 618.4,-349.75 612.4,-355.75 606.4,-355.75"/>
<image xlink:href="../../../../inputs/icons/Messaging_Distributer_Reverse.svg" width="144px" height="144px" preserveAspectRatio="xMinYMin meet" x="467.2" y="-355.75"/>
<text xml:space="preserve" text-anchor="middle" x="539.2" y="-224.75" font-family="Helvetica,sans-Serif" font-size="10.00">.sigdsl stream</text>
<text xml:space="preserve" text-anchor="middle" x="539.2" y="-213.5" font-family="Helvetica,sans-Serif" font-size="10.00">typed JSONL</text>
</g>
<!-- parsers&#45;&gt;dsl -->
<g id="edge6" class="edge">
<title>parsers&#45;&gt;dsl</title>
<path fill="none" stroke="#333333" stroke-width="1.5" d="M389.32,-284C389.32,-284 450.1,-284 450.1,-284"/>
<polygon fill="#333333" stroke="#333333" stroke-width="1.5" points="450.1,-286.45 457.1,-284 450.1,-281.55 450.1,-286.45"/>
</g>
<!-- graphreader -->
<g id="node6" class="node">
<title>graphreader</title>
<path fill="#f3e5f5" stroke="#6a1b9a" stroke-width="2" d="M376.4,-144C376.4,-144 242,-144 242,-144 236,-144 230,-138 230,-132 230,-132 230,-12 230,-12 230,-6 236,0 242,0 242,0 376.4,0 376.4,0 382.4,0 388.4,-6 388.4,-12 388.4,-12 388.4,-132 388.4,-132 388.4,-138 382.4,-144 376.4,-144"/>
<image xlink:href="../../../../inputs/icons/agent.png" width="144px" height="144px" preserveAspectRatio="xMinYMin meet" x="237.2" y="-144"/>
<text xml:space="preserve" text-anchor="middle" x="309.2" y="-24.25" font-family="Helvetica,sans-Serif" font-size="10.00">GraphReader</text>
<text xml:space="preserve" text-anchor="middle" x="309.2" y="-13" font-family="Helvetica,sans-Serif" font-size="10.00">sole producer of</text>
<text xml:space="preserve" text-anchor="middle" x="309.2" y="-1.75" font-family="Helvetica,sans-Serif" font-size="10.00">deliverables</text>
</g>
<!-- parsers&#45;&gt;graphreader -->
<!-- graphloader -->
<g id="node4" class="node">
<title>graphloader</title>
<path fill="#f3e5f5" stroke="#6a1b9a" stroke-width="2" d="M860.4,-355.75C860.4,-355.75 726,-355.75 726,-355.75 720,-355.75 714,-349.75 714,-343.75 714,-343.75 714,-223.75 714,-223.75 714,-217.75 720,-211.75 726,-211.75 726,-211.75 860.4,-211.75 860.4,-211.75 866.4,-211.75 872.4,-217.75 872.4,-223.75 872.4,-223.75 872.4,-343.75 872.4,-343.75 872.4,-349.75 866.4,-355.75 860.4,-355.75"/>
<image xlink:href="../../../../inputs/icons/agent.png" width="144px" height="144px" preserveAspectRatio="xMinYMin meet" x="721.2" y="-355.75"/>
<text xml:space="preserve" text-anchor="middle" x="793.2" y="-224.75" font-family="Helvetica,sans-Serif" font-size="10.00">GraphLoader</text>
<text xml:space="preserve" text-anchor="middle" x="793.2" y="-213.5" font-family="Helvetica,sans-Serif" font-size="10.00">sole writer to SI/G</text>
</g>
<!-- dsl&#45;&gt;graphloader -->
<g id="edge7" class="edge">
<title>dsl&#45;&gt;graphloader</title>
<path fill="none" stroke="#333333" stroke-width="1.5" d="M619.22,-284C619.22,-284 703.88,-284 703.88,-284"/>
<polygon fill="#333333" stroke="#333333" stroke-width="1.5" points="703.88,-286.45 710.88,-284 703.88,-281.55 703.88,-286.45"/>
</g>
<!-- output_bucket -->
<g id="node7" class="node">
<title>output_bucket</title>
<path fill="#e8f5e9" stroke="#388e3c" stroke-width="2" d="M606.4,-144C606.4,-144 472,-144 472,-144 466,-144 460,-138 460,-132 460,-132 460,-12 460,-12 460,-6 466,0 472,0 472,0 606.4,0 606.4,0 612.4,0 618.4,-6 618.4,-12 618.4,-12 618.4,-132 618.4,-132 618.4,-138 612.4,-144 606.4,-144"/>
<image xlink:href="../../../../inputs/icons/Storage_Bucket_Reverse.svg" width="144px" height="144px" preserveAspectRatio="xMinYMin meet" x="467.2" y="-144"/>
<text xml:space="preserve" text-anchor="middle" x="539.2" y="-13" font-family="Helvetica,sans-Serif" font-size="10.00">Output Bucket</text>
<text xml:space="preserve" text-anchor="middle" x="539.2" y="-1.75" font-family="Helvetica,sans-Serif" font-size="10.00">S3 git&#45;tree</text>
</g>
<!-- dsl&#45;&gt;output_bucket -->
<!-- graphloader&#45;&gt;sig_graph -->
<g id="edge8" class="edge">
<title>graphloader&#45;&gt;sig_graph</title>
<path fill="none" stroke="#4a148c" stroke-width="3" d="M762.8,-210.88C762.8,-192.56 762.8,-178 762.8,-178 762.8,-178 105.6,-178 105.6,-178 105.6,-178 105.6,-156.87 105.6,-156.87"/>
<polygon fill="#4a148c" stroke="#4a148c" stroke-width="3" points="108.05,-156.87 105.6,-149.87 103.15,-156.87 108.05,-156.87"/>
<text xml:space="preserve" text-anchor="middle" x="690.33" y="-174.2" font-family="Helvetica,sans-Serif" font-size="9.00">promotes</text>
</g>
<!-- window -->
<g id="node8" class="node">
<title>window</title>
<path fill="#e1f5fe" stroke="#0277bd" stroke-width="2" d="M848.4,-144C848.4,-144 714,-144 714,-144 708,-144 702,-138 702,-132 702,-132 702,-12 702,-12 702,-6 708,0 714,0 714,0 848.4,0 848.4,0 854.4,0 860.4,-6 860.4,-12 860.4,-12 860.4,-132 860.4,-132 860.4,-138 854.4,-144 848.4,-144"/>
<image xlink:href="../../../../inputs/icons/General_Dashboard_Reverse.svg" width="144px" height="144px" preserveAspectRatio="xMinYMin meet" x="709.2" y="-144"/>
<text xml:space="preserve" text-anchor="middle" x="781.2" y="-13" font-family="Helvetica,sans-Serif" font-size="10.00">SI/W Window</text>
<text xml:space="preserve" text-anchor="middle" x="781.2" y="-1.75" font-family="Helvetica,sans-Serif" font-size="10.00">consumer UI</text>
</g>
<!-- graphloader&#45;&gt;window -->
<!-- sig_graph&#45;&gt;graphreader -->
<g id="edge9" class="edge">
<title>sig_graph&#45;&gt;graphreader</title>
<path fill="none" stroke="#333333" stroke-width="1.5" d="M159.64,-72C159.64,-72 219.92,-72 219.92,-72"/>
<polygon fill="#333333" stroke="#333333" stroke-width="1.5" points="219.92,-74.45 226.92,-72 219.92,-69.55 219.92,-74.45"/>
</g>
<!-- graphreader&#45;&gt;output_bucket -->
<g id="edge10" class="edge">
<title>graphreader&#45;&gt;output_bucket</title>
<path fill="none" stroke="#388e3c" stroke-width="3" d="M389.32,-72C389.32,-72 447.83,-72 447.83,-72"/>
<polygon fill="#388e3c" stroke="#388e3c" stroke-width="3" points="447.83,-74.45 454.83,-72 447.83,-69.55 447.83,-74.45"/>
</g>
<!-- output_bucket&#45;&gt;window -->
<g id="edge11" class="edge">
<title>output_bucket&#45;&gt;window</title>
<path fill="none" stroke="#333333" stroke-width="1.5" d="M619.11,-72C619.11,-72 692.1,-72 692.1,-72"/>
<polygon fill="#333333" stroke="#333333" stroke-width="1.5" points="692.1,-74.45 699.1,-72 692.1,-69.55 692.1,-74.45"/>
</g>
</g>
</svg>
